<svg width="97" height="22" viewBox="0 0 97 22" fill="none" xmlns="http://www.w3.org/2000/svg">
<g clip-path="url(#clip0_28_1303)">
<path d="M17.9778 6.35812V19.4602H0V0H11.6197V6.35812L8.31561 2.98612H2.98612L2.9911 16.4691H14.9923L14.9867 9.65718L11.6197 6.35812H17.9778Z" fill="#1556D4"/>
<path d="M24.082 17.2116V2.24988H28.7638C30.2525 2.24988 31.5671 2.56885 32.7075 3.20681C33.8281 3.82405 34.756 4.73959 35.3881 5.85192C36.0327 6.97779 36.355 8.27468 36.355 9.7426C36.355 11.2026 36.0327 12.4941 35.3881 13.6171C34.7545 14.7268 33.8269 15.6402 32.7075 16.2566C31.5675 16.8945 30.2529 17.2133 28.7638 17.2129L24.082 17.2116ZM26.4765 14.9786H28.4752C29.5508 14.9786 30.4913 14.7683 31.2967 14.3477C32.0866 13.9415 32.7405 13.3131 33.1775 12.5398C33.6268 11.7568 33.8514 10.824 33.8514 9.74135C33.8514 8.65039 33.6289 7.71154 33.1838 6.9248C32.7498 6.1485 32.0976 5.51664 31.3079 5.10757C30.5025 4.68407 29.5584 4.47211 28.4758 4.4717H26.4765V14.9786Z" fill="#1556D4"/>
<path d="M48.8217 9.11858C48.8042 9.08242 48.7799 9.04689 48.7594 9.01634H45.8599C46.0013 9.11434 46.1336 9.22493 46.2551 9.34675C46.891 9.98179 47.2089 10.8392 47.2089 11.9189C47.2089 12.9987 46.8914 13.8583 46.2564 14.498C45.6151 15.133 44.8036 15.4507 43.822 15.4511C42.8445 15.4511 42.0409 15.1332 41.3994 14.498C40.7579 13.8627 40.4456 13.0018 40.4456 11.9189C40.4456 10.8361 40.7635 9.982 41.3994 9.34675C42.0353 8.7115 42.8382 8.39294 43.822 8.39294C44.6137 8.39294 45.2913 8.59679 45.8549 9.01073V6.64179C45.2012 6.416 44.5135 6.30445 43.822 6.31201C42.7185 6.31201 41.7329 6.56989 40.8652 7.08565C40.0213 7.58146 39.3209 8.28828 38.8329 9.13666C38.3491 9.98853 38.0947 10.9514 38.0947 11.9311C38.0947 12.9107 38.3491 13.8736 38.8329 14.7255C39.3192 15.573 40.0195 16.2779 40.8639 16.7696C41.7367 17.2796 42.7173 17.5314 43.8207 17.5314C44.9429 17.5314 45.9343 17.2736 46.795 16.7578C47.6359 16.2601 48.334 15.5536 48.8217 14.7068C49.3055 13.8549 49.5598 12.892 49.5598 11.9124C49.5598 10.9327 49.3055 9.96983 48.8217 9.11796V9.11858Z" fill="#1556D4"/>
<path d="M56.8828 17.5326C55.771 17.5326 54.7807 17.2885 53.9116 16.8001C53.0628 16.3303 52.3565 15.64 51.8675 14.8021C51.3729 13.9572 51.1254 12.9969 51.125 11.9214C51.125 10.8387 51.3816 9.87493 51.8949 9.03001C52.4042 8.1876 53.1316 7.49837 54.0001 7.03511C54.8904 6.55093 55.9057 6.30884 57.0461 6.30884C58.4646 6.30884 59.6867 6.69348 60.7124 7.46276L59.579 9.25817C59.25 8.96559 58.8645 8.74364 58.4463 8.60609C58.0119 8.46263 57.5572 8.39042 57.0997 8.39226C55.988 8.39226 55.1098 8.70043 54.4652 9.31677C53.8206 9.93311 53.4983 10.7972 53.4983 11.9089C53.4983 13.0136 53.8206 13.8793 54.4652 14.506C55.1098 15.1327 55.988 15.4463 57.0997 15.4467C57.6109 15.4496 58.1177 15.3515 58.5909 15.1581C59.0336 14.9813 59.4355 14.7156 59.7716 14.3776L60.8938 16.1624C60.3202 16.5921 59.6839 16.931 59.0073 17.1673C58.3252 17.4093 57.6066 17.5329 56.8828 17.5326Z" fill="#1556D4"/>
<path d="M66.6192 17.5215C65.7856 17.528 64.9562 17.4037 64.1611 17.1531C63.3985 16.9075 62.7572 16.5708 62.2373 16.1432L63.1244 14.4226C63.6232 14.8182 64.1851 15.1269 64.7864 15.3358C65.3711 15.5474 65.9875 15.6577 66.6092 15.6619C67.3 15.6619 67.8378 15.5405 68.2226 15.2978C68.6075 15.0551 68.7999 14.7166 68.7999 14.2823C68.7999 13.8762 68.6324 13.5735 68.2974 13.374C67.9625 13.1745 67.3353 12.9682 66.416 12.7549C65.084 12.4761 64.1169 12.0813 63.5147 11.5705C62.9125 11.0597 62.6113 10.3532 62.6113 9.45089C62.6016 8.84752 62.787 8.25713 63.14 7.7677C63.4933 7.27895 63.9797 6.89576 64.5994 6.61814C65.2191 6.34051 65.9351 6.2017 66.7476 6.2017C67.5052 6.19662 68.2589 6.31021 68.9813 6.53834C69.6391 6.74149 70.2547 7.06188 70.7985 7.48405L69.9644 9.21587C69.5342 8.84836 69.0396 8.56385 68.5057 8.37677C67.9537 8.17015 67.3694 8.06333 66.7801 8.06132C66.1741 8.06132 65.6858 8.17707 65.3151 8.40856C64.9443 8.64005 64.7592 8.95882 64.7596 9.36486C64.7596 9.78587 64.936 10.0959 65.2889 10.295C65.6417 10.4941 66.2562 10.6936 67.1323 10.8935C68.4934 11.1993 69.4715 11.6002 70.0667 12.096C70.6618 12.5918 70.9592 13.2813 70.9588 14.1645C70.9588 15.1831 70.5598 15.9971 69.7618 16.6063C68.9639 17.2156 67.9163 17.5207 66.6192 17.5215Z" fill="#1556D4"/>
<path d="M73.6084 17.2116V6.63049H75.9599V17.2116H73.6084Z" fill="#1556D4"/>
<path d="M80.2677 17.2117V8.57625H78.1406V6.6306H80.2677V4.89941C80.2677 3.84502 80.5723 3.01485 81.1816 2.4089C81.7909 1.80295 82.6333 1.50018 83.7089 1.5006C84.0688 1.49807 84.4277 1.53995 84.7774 1.62528C85.0938 1.70232 85.3992 1.81899 85.6863 1.97251L85.2499 3.83151C85.0608 3.72472 84.8574 3.64558 84.6459 3.59649C84.4616 3.55586 84.2735 3.53496 84.0848 3.53415C83.6501 3.53415 83.2956 3.6447 83.0213 3.8658C82.747 4.0869 82.6098 4.46468 82.6098 4.99915V6.63372H85.5804L86.9007 8.57937H82.608V17.2117H80.2677Z" fill="#1556D4"/>
<path d="M87.6508 22C87.2698 21.9997 86.89 21.9579 86.5181 21.8753C86.1331 21.7872 85.7649 21.6376 85.4277 21.4321L85.962 19.4222C86.1843 19.5658 86.4277 19.674 86.6833 19.7426C86.9145 19.8099 87.1538 19.846 87.3946 19.8499C87.8933 19.8499 88.285 19.7341 88.5697 19.5026C88.8544 19.2711 89.079 18.906 89.2436 18.4073L89.5958 17.3812L85.4277 6.62866H88.0037L90.9337 14.837L93.787 6.62866H96.2775L91.7029 18.7402C91.2109 20.0082 90.629 20.8685 89.9574 21.3211C89.2858 21.7737 88.5169 22 87.6508 22Z" fill="#1556D4"/>
<path d="M75.9599 1.9762H73.6084V4.32768H75.9599V1.9762Z" fill="#1556D4"/>
<path d="M45.8599 9.0155H45.8545V9.01065C45.8552 9.01057 45.8559 9.01064 45.8565 9.01085C45.8572 9.01106 45.8578 9.01141 45.8583 9.01187C45.8588 9.01232 45.8592 9.01288 45.8595 9.01351C45.8597 9.01414 45.8599 9.01482 45.8599 9.0155Z" fill="#1556D4"/>
</g>
<defs>
<clipPath id="clip0_28_1303">
<rect width="96.2757" height="22" fill="white"/>
</clipPath>
</defs>
</svg>
